<svg width="20" height="21" viewBox="0 0 20 21" fill="none" xmlns="http://www.w3.org/2000/svg">
<path d="M19.2333 10.2296C19.2253 15.8579 15.0115 20.4118 9.82061 20.4012C8.17271 20.3979 6.62523 19.9345 5.27947 19.124L0.0736909 20.9202L1.77788 15.4561C0.924322 13.9188 0.43403 12.1168 0.436775 10.1914C0.444799 4.56318 4.65901 0.00926046 9.84966 0.0198121C15.041 0.030365 19.2413 4.60139 19.2333 10.2296ZM9.84735 1.64276C5.49011 1.6339 1.94038 5.47021 1.93365 10.1945C1.93097 12.0692 2.48773 13.8064 3.43165 15.2207L2.43991 18.4007L5.47791 17.3522C6.7242 18.2499 8.21799 18.775 9.82313 18.7783C14.1797 18.7872 17.7301 14.9513 17.7368 10.2271C17.7436 5.5028 14.2044 1.65162 9.84735 1.64276ZM14.5777 12.5672C14.5197 12.4632 14.3665 12.4001 14.1365 12.2748C13.9061 12.1495 12.774 11.5426 12.5636 11.4592C12.3524 11.3756 12.1985 11.3334 12.0448 11.583C11.8911 11.8328 11.4487 12.3942 11.3138 12.5606C11.1791 12.7274 11.0448 12.7481 10.8144 12.6225C10.5845 12.4972 9.84268 12.2317 8.96389 11.3791C8.28011 10.7157 7.81883 9.89751 7.68475 9.64689C7.55089 9.39673 7.67126 9.26192 7.78652 9.1378C7.89048 9.02597 8.01752 8.84655 8.1328 8.70104C8.24851 8.55529 8.28695 8.45147 8.36355 8.28473C8.44101 8.11822 8.40271 7.9724 8.34503 7.84699C8.28778 7.72205 7.82837 6.49193 7.63721 5.99132C7.44605 5.49116 7.25428 5.57399 7.11963 5.57372C6.98541 5.57344 6.83165 5.55221 6.67807 5.5519C6.52449 5.55159 6.27467 5.61361 6.06309 5.86306C5.85172 6.11274 5.2559 6.7159 5.25414 7.94484C5.25239 9.17402 6.07582 10.3633 6.19108 10.5299C6.30593 10.6966 7.78037 13.304 10.1209 14.3089C12.4617 15.3134 12.4622 14.9799 12.8847 14.9389C13.3068 14.8982 14.2482 14.3375 14.4417 13.755C14.634 13.1714 14.6347 12.6714 14.5777 12.5672Z" fill="white"/>
</svg>
