<svg width="24" height="24" viewBox="0 0 24 24" fill="none" xmlns="http://www.w3.org/2000/svg">
<g clip-path="url(#clip0_1_260)">
<path d="M18.0293 20.1512L18.049 19.8664C18.0924 19.2 17.6974 18.3241 17.1702 17.9196L15.2209 16.4184C14.692 16.0119 13.7532 15.881 13.1387 16.1378L12.0178 16.6062C9.4503 14.6401 8.11553 11.4458 8.52168 8.23846L9.64262 7.77005C10.2571 7.51327 10.8232 6.75446 10.9056 6.09253L11.2088 3.65C11.2909 2.98916 10.9441 2.0922 10.4397 1.6574L10.2236 1.47022C9.71805 1.03496 8.80202 0.88913 8.18757 1.14589L6.51042 1.84761C6.21134 1.97166 5.82756 2.52011 5.82666 2.52232C4.23563 6.27917 4.2226 10.5227 5.79608 14.2883C7.36571 18.0446 10.3814 21.0094 14.1574 22.5227C14.1771 22.5307 14.8536 22.6524 15.1527 22.5284L16.8294 21.8277C17.4438 21.571 17.9837 20.8168 18.0293 20.1512Z" fill="white"/>
</g>
<defs>
<clipPath id="clip0_1_260">
<rect width="18.066" height="18.066" fill="white" transform="translate(6.86133) rotate(22.3215)"/>
</clipPath>
</defs>
</svg>
