<svg width="108" height="69" viewBox="0 0 108 69" fill="none" xmlns="http://www.w3.org/2000/svg">
<path d="M2.85156 0.40625H7.59766L13.75 18.7051L19.8848 0.40625H24.6309L15.666 26H11.8164L2.85156 0.40625ZM0.109375 0.40625H4.94336L5.83984 19.373V26H0.109375V0.40625ZM22.5391 0.40625H27.3906V26H21.6426V19.373L22.5391 0.40625ZM29.1323 16.6836V16.3145C29.1323 14.9199 29.3315 13.6367 29.7299 12.4648C30.1284 11.2812 30.7143 10.2559 31.4877 9.38867C32.2612 8.52148 33.2104 7.84766 34.3354 7.36719C35.4604 6.875 36.7495 6.62891 38.2026 6.62891C39.6791 6.62891 40.9799 6.875 42.1049 7.36719C43.2416 7.84766 44.1967 8.52148 44.9702 9.38867C45.7436 10.2559 46.3295 11.2812 46.728 12.4648C47.1264 13.6367 47.3256 14.9199 47.3256 16.3145V16.6836C47.3256 18.0664 47.1264 19.3496 46.728 20.5332C46.3295 21.7051 45.7436 22.7305 44.9702 23.6094C44.1967 24.4766 43.2475 25.1504 42.1225 25.6309C40.9975 26.1113 39.7026 26.3516 38.2377 26.3516C36.7846 26.3516 35.4897 26.1113 34.353 25.6309C33.2162 25.1504 32.2612 24.4766 31.4877 23.6094C30.7143 22.7305 30.1284 21.7051 29.7299 20.5332C29.3315 19.3496 29.1323 18.0664 29.1323 16.6836ZM34.6342 16.3145V16.6836C34.6342 17.4336 34.6928 18.1367 34.81 18.793C34.9389 19.4492 35.144 20.0234 35.4252 20.5156C35.7065 21.0078 36.0756 21.3945 36.5327 21.6758C37.0014 21.9453 37.5698 22.0801 38.2377 22.0801C38.9057 22.0801 39.4682 21.9453 39.9252 21.6758C40.3823 21.3945 40.7514 21.0078 41.0327 20.5156C41.3139 20.0234 41.5131 19.4492 41.6303 18.793C41.7592 18.1367 41.8237 17.4336 41.8237 16.6836V16.3145C41.8237 15.5762 41.7592 14.8848 41.6303 14.2402C41.5131 13.584 41.3139 13.0039 41.0327 12.5C40.7514 11.9961 40.3764 11.6035 39.9077 11.3223C39.4506 11.041 38.8823 10.9004 38.2026 10.9004C37.5463 10.9004 36.9897 11.041 36.5327 11.3223C36.0756 11.6035 35.7065 11.9961 35.4252 12.5C35.144 13.0039 34.9389 13.584 34.81 14.2402C34.6928 14.8848 34.6342 15.5762 34.6342 16.3145ZM58.4364 6.98047V10.8301H47.1512V6.98047H58.4364ZM49.7352 2.26953H55.2372V20.041C55.2372 20.5684 55.3016 20.9727 55.4305 21.2539C55.5595 21.5352 55.7704 21.7344 56.0634 21.8516C56.3563 21.957 56.7313 22.0098 57.1884 22.0098C57.5165 22.0098 57.7977 21.998 58.0321 21.9746C58.2665 21.9512 58.4833 21.9219 58.6825 21.8867V25.8594C58.2137 26.0117 57.7157 26.1289 57.1884 26.2109C56.661 26.3047 56.0868 26.3516 55.4657 26.3516C54.2821 26.3516 53.2567 26.1582 52.3895 25.7715C51.5341 25.3848 50.8778 24.7754 50.4208 23.9434C49.9637 23.0996 49.7352 22.0039 49.7352 20.6562V2.26953ZM58.3499 16.6836V16.3145C58.3499 14.9199 58.5491 13.6367 58.9476 12.4648C59.346 11.2812 59.932 10.2559 60.7054 9.38867C61.4788 8.52148 62.428 7.84766 63.553 7.36719C64.678 6.875 65.9671 6.62891 67.4202 6.62891C68.8968 6.62891 70.1976 6.875 71.3226 7.36719C72.4593 7.84766 73.4144 8.52148 74.1878 9.38867C74.9613 10.2559 75.5472 11.2812 75.9456 12.4648C76.3441 13.6367 76.5433 14.9199 76.5433 16.3145V16.6836C76.5433 18.0664 76.3441 19.3496 75.9456 20.5332C75.5472 21.7051 74.9613 22.7305 74.1878 23.6094C73.4144 24.4766 72.4652 25.1504 71.3402 25.6309C70.2152 26.1113 68.9202 26.3516 67.4554 26.3516C66.0023 26.3516 64.7073 26.1113 63.5706 25.6309C62.4339 25.1504 61.4788 24.4766 60.7054 23.6094C59.932 22.7305 59.346 21.7051 58.9476 20.5332C58.5491 19.3496 58.3499 18.0664 58.3499 16.6836ZM63.8519 16.3145V16.6836C63.8519 17.4336 63.9105 18.1367 64.0277 18.793C64.1566 19.4492 64.3616 20.0234 64.6429 20.5156C64.9241 21.0078 65.2933 21.3945 65.7503 21.6758C66.2191 21.9453 66.7874 22.0801 67.4554 22.0801C68.1234 22.0801 68.6859 21.9453 69.1429 21.6758C69.5999 21.3945 69.9691 21.0078 70.2503 20.5156C70.5316 20.0234 70.7308 19.4492 70.848 18.793C70.9769 18.1367 71.0413 17.4336 71.0413 16.6836V16.3145C71.0413 15.5762 70.9769 14.8848 70.848 14.2402C70.7308 13.584 70.5316 13.0039 70.2503 12.5C69.9691 11.9961 69.5941 11.6035 69.1253 11.3223C68.6683 11.041 68.0999 10.9004 67.4202 10.9004C66.764 10.9004 66.2073 11.041 65.7503 11.3223C65.2933 11.6035 64.9241 11.9961 64.6429 12.5C64.3616 13.0039 64.1566 13.584 64.0277 14.2402C63.9105 14.8848 63.8519 15.5762 63.8519 16.3145ZM40.4188 63.4121V48.9805H45.9384V68H40.7704L40.4188 63.4121ZM40.9989 59.5273L42.5106 59.4922C42.5106 60.7695 42.3583 61.9473 42.0536 63.0254C41.7606 64.1035 41.3153 65.041 40.7177 65.8379C40.1317 66.6348 39.3993 67.2559 38.5204 67.7012C37.6532 68.1348 36.6395 68.3516 35.4794 68.3516C34.5419 68.3516 33.6805 68.2227 32.8954 67.9648C32.122 67.6953 31.454 67.2793 30.8915 66.7168C30.329 66.1426 29.8954 65.4102 29.5907 64.5195C29.286 63.6172 29.1337 62.5391 29.1337 61.2852V48.9805H34.618V61.3203C34.618 61.8125 34.6766 62.2344 34.7938 62.5859C34.9227 62.9258 35.0927 63.207 35.3036 63.4297C35.5262 63.6523 35.7958 63.8164 36.1122 63.9219C36.4403 64.0273 36.7977 64.0801 37.1845 64.0801C38.1571 64.0801 38.9188 63.8809 39.4696 63.4824C40.0321 63.0723 40.4247 62.5273 40.6473 61.8477C40.8817 61.1562 40.9989 60.3828 40.9989 59.5273ZM63.4476 63.7285V68H48.8577V63.7285H63.4476ZM63.2191 52.0391L51.2132 68H47.4866V64.8359L59.4573 48.9805H63.2191V52.0391ZM61.3382 48.9805V53.252H47.803V48.9805H61.3382ZM80.4646 63.7285V68H65.8748V63.7285H80.4646ZM80.2361 52.0391L68.2302 68H64.5037V64.8359L76.4744 48.9805H80.2361V52.0391ZM78.3552 48.9805V53.252H64.8201V48.9805H78.3552ZM87.884 41V68H82.382V41H87.884ZM99.3639 68.3516C97.8522 68.3516 96.4987 68.1113 95.3034 67.6309C94.108 67.1504 93.0944 66.4883 92.2623 65.6445C91.442 64.7891 90.8151 63.8047 90.3815 62.6914C89.9479 61.5781 89.7311 60.3887 89.7311 59.123V58.4551C89.7311 57.0371 89.9303 55.7305 90.3288 54.5352C90.7272 53.3398 91.3073 52.3027 92.069 51.4238C92.8424 50.5332 93.7916 49.8477 94.9166 49.3672C96.0416 48.875 97.3248 48.6289 98.7663 48.6289C100.114 48.6289 101.315 48.8516 102.37 49.2969C103.424 49.7305 104.315 50.3574 105.042 51.1777C105.768 51.9863 106.319 52.9648 106.694 54.1133C107.081 55.25 107.274 56.5273 107.274 57.9453V60.1953H91.9459V56.6621H101.895V56.2402C101.895 55.5723 101.772 54.9863 101.526 54.4824C101.292 53.9785 100.94 53.5918 100.471 53.3223C100.014 53.041 99.4342 52.9004 98.7311 52.9004C98.0631 52.9004 97.5065 53.041 97.0612 53.3223C96.6159 53.6035 96.2584 54.002 95.9889 54.5176C95.7311 55.0215 95.5436 55.6133 95.4264 56.293C95.3092 56.9609 95.2506 57.6816 95.2506 58.4551V59.123C95.2506 59.8613 95.3502 60.5352 95.5495 61.1445C95.7487 61.7539 96.0416 62.2754 96.4284 62.709C96.8151 63.1426 97.2838 63.4824 97.8346 63.7285C98.3854 63.9746 99.0123 64.0977 99.7155 64.0977C100.583 64.0977 101.409 63.9336 102.194 63.6055C102.979 63.2656 103.659 62.7383 104.233 62.0234L106.799 64.959C106.413 65.5215 105.868 66.0664 105.165 66.5938C104.473 67.1094 103.641 67.5312 102.669 67.8594C101.696 68.1875 100.594 68.3516 99.3639 68.3516Z" fill="white"/>
<path d="M17.7241 59.1055H11.2905V54.6582H17.7241C18.6733 54.6582 19.435 54.5 20.0092 54.1836C20.5952 53.8672 21.0229 53.4336 21.2924 52.8828C21.5737 52.3203 21.7143 51.6875 21.7143 50.9844C21.7143 50.2578 21.5737 49.584 21.2924 48.9629C21.0229 48.3301 20.5952 47.8203 20.0092 47.4336C19.435 47.0469 18.6733 46.8535 17.7241 46.8535H13.3647V68H7.63422V42.4062H17.7241C19.7631 42.4062 21.5092 42.7754 22.9623 43.5137C24.4272 44.252 25.5463 45.2656 26.3198 46.5547C27.1049 47.832 27.4975 49.2969 27.4975 50.9492C27.4975 52.6016 27.1049 54.0371 26.3198 55.2559C25.5463 56.4746 24.4272 57.4238 22.9623 58.1035C21.5092 58.7715 19.7631 59.1055 17.7241 59.1055Z" fill="#FAE05E"/>
</svg>
