<svg width="16" height="17" viewBox="0 0 16 17" fill="none" xmlns="http://www.w3.org/2000/svg">
<g clip-path="url(#clip0_2_68)">
<path d="M15.928 13.5499L15.8484 13.2949C15.6597 12.6993 15.0415 12.078 14.4735 11.9143L12.3715 11.3042C11.8015 11.1394 10.9883 11.361 10.5712 11.8041L9.81045 12.6124C7.04564 11.8186 4.87759 9.51502 4.13151 6.57798L4.89232 5.76962C5.30939 5.32648 5.51789 4.46365 5.3628 3.85798L4.78961 1.62344C4.63452 1.01887 4.04875 0.362 3.4892 0.163803L3.24925 0.0780827C2.68863 -0.120115 1.88909 0.0803272 1.47205 0.52343L0.334042 1.73367C0.130738 1.94854 0.000801313 2.56312 0.000801313 2.56536C-0.0390012 6.40426 1.37773 10.1028 3.93347 12.8184C6.48294 15.5272 9.95092 17.0302 13.5535 16.998C13.5723 16.998 14.1675 16.8621 14.3708 16.6472L15.5088 15.4381C15.9259 14.995 16.1145 14.1455 15.928 13.5499Z" fill="white"/>
</g>
<defs>
<clipPath id="clip0_2_68">
<rect width="16" height="17" fill="white"/>
</clipPath>
</defs>
</svg>
