<svg width="18" height="20" viewBox="0 0 18 20" fill="none" xmlns="http://www.w3.org/2000/svg">
<path d="M8.99992 9.45833C11.3932 9.45833 13.3333 7.51823 13.3333 5.125C13.3333 2.73176 11.3932 0.791664 8.99992 0.791664C6.60668 0.791664 4.66659 2.73176 4.66659 5.125C4.66659 7.51823 6.60668 9.45833 8.99992 9.45833Z" fill="white"/>
<path d="M17.6666 19.2083V14.875C17.6666 14.225 17.3416 13.575 16.7999 13.1417C15.6083 12.1667 14.0916 11.5167 12.5749 11.0833C11.4916 10.7583 10.2999 10.5417 8.99992 10.5417C7.80825 10.5417 6.61658 10.7583 5.42492 11.0833C3.90825 11.5167 2.39159 12.275 1.19992 13.1417C0.658252 13.575 0.333252 14.225 0.333252 14.875V19.2083H17.6666Z" fill="white"/>
</svg>
