<svg width="24" height="24" viewBox="0 0 24 24" fill="none" xmlns="http://www.w3.org/2000/svg">
<path d="M14.7543 6.91528H9.24581C8.93976 6.91528 8.63671 6.97555 8.35395 7.09267C8.0712 7.20979 7.81428 7.38146 7.59787 7.59787C7.38146 7.81428 7.20979 8.0712 7.09267 8.35395C6.97555 8.63671 6.91528 8.93976 6.91528 9.24581V14.7543C6.91528 15.3724 7.16082 15.9652 7.59788 16.4022C7.81429 16.6186 8.07121 16.7903 8.35396 16.9074C8.63671 17.0245 8.93976 17.0848 9.24581 17.0848H14.7543C15.3724 17.0848 15.9651 16.8393 16.4022 16.4022C16.8392 15.9651 17.0848 15.3724 17.0848 14.7543V9.24581C17.0848 8.93977 17.0245 8.63672 16.9074 8.35396C16.7903 8.07121 16.6186 7.81429 16.4022 7.59788C16.1858 7.38147 15.9289 7.20981 15.6461 7.09269C15.3634 6.97556 15.0603 6.91528 14.7543 6.91528ZM12 15.2059C11.366 15.2059 10.7462 15.0179 10.219 14.6656C9.69179 14.3133 9.28089 13.8127 9.03825 13.2269C8.79561 12.6411 8.73212 11.9965 8.85582 11.3746C8.97952 10.7528 9.28484 10.1815 9.73319 9.73319C10.1815 9.28484 10.7528 8.97952 11.3746 8.85582C11.9965 8.73212 12.6411 8.79561 13.2269 9.03825C13.8127 9.28089 14.3133 9.69179 14.6656 10.219C15.0179 10.7462 15.2059 11.366 15.2059 12C15.2059 12.421 15.123 12.8379 14.9618 13.2269C14.8007 13.6158 14.5646 13.9692 14.2669 14.2669C13.9692 14.5646 13.6158 14.8007 13.2269 14.9618C12.8379 15.123 12.421 15.2059 12 15.2059ZM15.3395 9.44911C15.1887 9.44912 15.0412 9.4044 14.9158 9.3206C14.7903 9.23679 14.6926 9.11768 14.6348 8.97831C14.5771 8.83895 14.562 8.68559 14.5914 8.53764C14.6208 8.38969 14.6935 8.25378 14.8001 8.14711C14.9068 8.04044 15.0427 7.9678 15.1907 7.93836C15.3386 7.90893 15.492 7.92403 15.6313 7.98176C15.7707 8.03948 15.8898 8.13724 15.9736 8.26267C16.0574 8.3881 16.1022 8.53556 16.1022 8.68641C16.1022 8.88868 16.0218 9.08267 15.8788 9.2257C15.7358 9.36874 15.5418 9.4491 15.3395 9.44911Z" fill="#949494"/>
<path d="M12.0001 9.91626C11.5879 9.91626 11.1851 10.0385 10.8424 10.2674C10.4997 10.4964 10.2326 10.8219 10.0749 11.2026C9.91716 11.5834 9.8759 12.0024 9.9563 12.4066C10.0367 12.8108 10.2352 13.1821 10.5266 13.4736C10.818 13.765 11.1893 13.9635 11.5936 14.0439C11.9978 14.1243 12.4168 14.083 12.7975 13.9253C13.1783 13.7676 13.5038 13.5005 13.7327 13.1578C13.9617 12.8151 14.0839 12.4122 14.0839 12.0001C14.0839 11.4474 13.8644 10.9174 13.4736 10.5266C13.0828 10.1358 12.5528 9.91626 12.0001 9.91626Z" fill="#949494"/>
<path d="M12 0C5.37258 0 0 5.37258 0 12C0 18.6274 5.37258 24 12 24C18.6274 24 24 18.6274 24 12C24 5.37258 18.6274 0 12 0ZM18.25 14.6484C18.2499 15.6036 17.8705 16.5197 17.1951 17.1951C16.5197 17.8705 15.6036 18.2499 14.6484 18.25H9.35156C8.39638 18.2499 7.48033 17.8705 6.80491 17.1951C6.12949 16.5197 5.75002 15.6036 5.74997 14.6484V9.35156C5.75001 8.39638 6.12947 7.48032 6.80489 6.80491C7.48032 6.12949 8.39638 5.75004 9.35156 5.75002H14.6484C15.6036 5.75005 16.5197 6.12951 17.1951 6.80492C17.8705 7.48034 18.2499 8.39638 18.25 9.35156V14.6484Z" fill="#949494"/>
</svg>
