<svg width="28" height="28" viewBox="0 0 28 28" fill="none" xmlns="http://www.w3.org/2000/svg">
<path d="M27.6171 14.0548C27.6171 15.9579 27.5788 17.8665 27.628 19.7696C27.7101 23.1383 25.5936 25.7415 22.8976 26.9008C21.8147 27.3657 20.6772 27.6118 19.5015 27.6118C15.821 27.6173 12.1351 27.6665 8.45459 27.5954C5.68193 27.5407 3.40146 26.3813 1.76631 24.0954C0.907715 22.8923 0.497559 21.5251 0.497559 20.043C0.497559 16.1219 0.497559 12.2063 0.497559 8.28522C0.497559 5.086 2.05615 2.84928 4.82334 1.39459C6.02646 0.765688 7.33349 0.497719 8.69521 0.49225C12.2663 0.49225 15.8429 0.470375 19.414 0.503188C22.1866 0.525063 24.4999 1.586 26.2062 3.81725C27.1577 5.06413 27.6171 6.49694 27.6171 8.07194C27.6171 10.0626 27.6171 12.0587 27.6171 14.0548ZM2.51553 14.0548C2.51553 16.0618 2.51553 18.0633 2.51553 20.0704C2.51553 20.9673 2.72334 21.8094 3.18818 22.5696C4.40771 24.5657 6.25068 25.5391 8.53662 25.5774C12.2062 25.6321 15.8812 25.5993 19.5562 25.5883C20.4585 25.5883 21.3335 25.4024 22.1483 25.0141C24.3686 23.9532 25.6101 22.2633 25.5991 19.7258C25.5772 15.843 25.5936 11.9602 25.5936 8.07741C25.5936 6.97819 25.2819 5.97194 24.6311 5.086C23.3733 3.38522 21.6343 2.5485 19.5562 2.52663C15.8921 2.48288 12.228 2.51022 8.56396 2.51569C7.78193 2.51569 7.02725 2.67428 6.29443 2.94772C4.28193 3.69694 2.41162 5.59459 2.49912 8.38913C2.56475 10.2813 2.51553 12.168 2.51553 14.0548Z" fill="black"/>
<path d="M14.0875 19.8516C10.5602 19.8516 7.71641 17.0406 7.71095 13.5406C7.70548 10.0953 10.5711 7.27345 14.0766 7.27345C17.593 7.26798 20.4477 10.0844 20.4531 13.557C20.4531 17.0242 17.6039 19.8461 14.0875 19.8516ZM14.0875 17.8281C16.4883 17.8281 18.4352 15.9086 18.4297 13.5461C18.4242 11.2055 16.4774 9.29141 14.0875 9.29141C11.6867 9.29141 9.72891 11.2 9.72891 13.557C9.73438 15.9195 11.6867 17.8336 14.0875 17.8281Z" fill="black"/>
<path d="M21.1913 5.35938C21.9296 5.35938 22.5312 5.98828 22.5312 6.75937C22.5257 7.53047 21.9187 8.1539 21.1804 8.14844C20.4531 8.14297 19.857 7.51953 19.857 6.76484C19.8515 5.99375 20.4531 5.35938 21.1913 5.35938Z" fill="black"/>
</svg>
