<svg width="84" height="64" viewBox="0 0 84 64" fill="none" xmlns="http://www.w3.org/2000/svg">
<path d="M4.83672 33.2304L11.8915 35.3807L11.7727 34.8315C11.6552 34.2933 11.6633 33.7567 11.7957 33.2376C12.2556 31.435 14.0783 30.4101 15.859 30.9528C17.6397 31.4956 18.7143 33.4036 18.2544 35.2062C18.122 35.7253 17.8749 36.189 17.5196 36.5831L17.158 36.9859L23.5669 38.9393L21.745 46.0815L22.2774 45.981C22.7982 45.8825 23.3233 45.9115 23.8367 46.068C25.6174 46.6107 26.692 48.5188 26.2322 50.3213C25.7724 52.1239 23.9496 53.1488 22.169 52.6061C21.6555 52.4496 21.1924 52.1774 20.7934 51.7986L20.3854 51.4114L18.7303 57.8998L13.3406 56.257C13.5955 55.8824 13.7822 55.4671 13.8969 55.0173C14.4488 52.8539 13.1596 50.5647 11.0224 49.9133C8.88521 49.2619 6.69837 50.4916 6.1465 52.655C6.03176 53.1048 5.99493 53.5657 6.03577 54.0306L0.000118751 52.1909L4.83672 33.2304Z" fill="#FAE05E"/>
<path d="M4.63867 5.80469H8.19824L12.8125 19.5288L17.4136 5.80469H20.9731L14.2495 25H11.3623L4.63867 5.80469ZM2.58203 5.80469H6.20752L6.87988 20.0298V25H2.58203V5.80469ZM19.4043 5.80469H23.043V25H18.7319V20.0298L19.4043 5.80469ZM24.3492 18.0127V17.7358C24.3492 16.6899 24.4986 15.7275 24.7974 14.8486C25.0963 13.9609 25.5357 13.1919 26.1158 12.5415C26.6959 11.8911 27.4078 11.3857 28.2515 11.0254C29.0953 10.6562 30.0621 10.4717 31.1519 10.4717C32.2594 10.4717 33.2349 10.6562 34.0787 11.0254C34.9312 11.3857 35.6475 11.8911 36.2276 12.5415C36.8077 13.1919 37.2471 13.9609 37.546 14.8486C37.8448 15.7275 37.9942 16.6899 37.9942 17.7358V18.0127C37.9942 19.0498 37.8448 20.0122 37.546 20.8999C37.2471 21.7788 36.8077 22.5479 36.2276 23.207C35.6475 23.8574 34.9356 24.3628 34.0919 24.7231C33.2481 25.0835 32.2769 25.2637 31.1783 25.2637C30.0885 25.2637 29.1173 25.0835 28.2647 24.7231C27.4122 24.3628 26.6959 23.8574 26.1158 23.207C25.5357 22.5479 25.0963 21.7788 24.7974 20.8999C24.4986 20.0122 24.3492 19.0498 24.3492 18.0127ZM28.4757 17.7358V18.0127C28.4757 18.5752 28.5196 19.1025 28.6075 19.5947C28.7042 20.0869 28.858 20.5176 29.0689 20.8867C29.2799 21.2559 29.5567 21.5459 29.8995 21.7568C30.2511 21.959 30.6773 22.0601 31.1783 22.0601C31.6793 22.0601 32.1012 21.959 32.4439 21.7568C32.7867 21.5459 33.0636 21.2559 33.2745 20.8867C33.4854 20.5176 33.6348 20.0869 33.7227 19.5947C33.8194 19.1025 33.8678 18.5752 33.8678 18.0127V17.7358C33.8678 17.1821 33.8194 16.6636 33.7227 16.1802C33.6348 15.688 33.4854 15.2529 33.2745 14.875C33.0636 14.4971 32.7823 14.2026 32.4307 13.9917C32.088 13.7808 31.6617 13.6753 31.1519 13.6753C30.6597 13.6753 30.2423 13.7808 29.8995 13.9917C29.5567 14.2026 29.2799 14.4971 29.0689 14.875C28.858 15.2529 28.7042 15.688 28.6075 16.1802C28.5196 16.6636 28.4757 17.1821 28.4757 17.7358ZM46.3273 10.7354V13.6226H37.8634V10.7354H46.3273ZM39.8014 7.20215H43.9279V20.5308C43.9279 20.9263 43.9762 21.2295 44.0729 21.4404C44.1696 21.6514 44.3278 21.8008 44.5475 21.8887C44.7672 21.9678 45.0485 22.0073 45.3913 22.0073C45.6374 22.0073 45.8483 21.9985 46.0241 21.981C46.1999 21.9634 46.3625 21.9414 46.5119 21.915V24.8945C46.1603 25.0088 45.7868 25.0967 45.3913 25.1582C44.9958 25.2285 44.5651 25.2637 44.0993 25.2637C43.2116 25.2637 42.4425 25.1187 41.7921 24.8286C41.1505 24.5386 40.6584 24.0815 40.3156 23.4575C39.9728 22.8247 39.8014 22.0029 39.8014 20.9922V7.20215ZM46.2624 18.0127V17.7358C46.2624 16.6899 46.4119 15.7275 46.7107 14.8486C47.0095 13.9609 47.449 13.1919 48.029 12.5415C48.6091 11.8911 49.321 11.3857 50.1648 11.0254C51.0085 10.6562 51.9753 10.4717 53.0652 10.4717C54.1726 10.4717 55.1482 10.6562 55.9919 11.0254C56.8445 11.3857 57.5608 11.8911 58.1409 12.5415C58.7209 13.1919 59.1604 13.9609 59.4592 14.8486C59.758 15.7275 59.9075 16.6899 59.9075 17.7358V18.0127C59.9075 19.0498 59.758 20.0122 59.4592 20.8999C59.1604 21.7788 58.7209 22.5479 58.1409 23.207C57.5608 23.8574 56.8489 24.3628 56.0051 24.7231C55.1614 25.0835 54.1902 25.2637 53.0915 25.2637C52.0017 25.2637 51.0305 25.0835 50.178 24.7231C49.3254 24.3628 48.6091 23.8574 48.029 23.207C47.449 22.5479 47.0095 21.7788 46.7107 20.8999C46.4119 20.0122 46.2624 19.0498 46.2624 18.0127ZM50.3889 17.7358V18.0127C50.3889 18.5752 50.4328 19.1025 50.5207 19.5947C50.6174 20.0869 50.7712 20.5176 50.9822 20.8867C51.1931 21.2559 51.47 21.5459 51.8127 21.7568C52.1643 21.959 52.5906 22.0601 53.0915 22.0601C53.5925 22.0601 54.0144 21.959 54.3572 21.7568C54.6999 21.5459 54.9768 21.2559 55.1877 20.8867C55.3987 20.5176 55.5481 20.0869 55.636 19.5947C55.7327 19.1025 55.781 18.5752 55.781 18.0127V17.7358C55.781 17.1821 55.7327 16.6636 55.636 16.1802C55.5481 15.688 55.3987 15.2529 55.1877 14.875C54.9768 14.4971 54.6955 14.2026 54.344 13.9917C54.0012 13.7808 53.5749 13.6753 53.0652 13.6753C52.573 13.6753 52.1555 13.7808 51.8127 13.9917C51.47 14.2026 51.1931 14.4971 50.9822 14.875C50.7712 15.2529 50.6174 15.688 50.5207 16.1802C50.4328 16.6636 50.3889 17.1821 50.3889 17.7358ZM15.793 50.3291H10.9679V46.9937H15.793C16.505 46.9937 17.0763 46.875 17.5069 46.6377C17.9464 46.4004 18.2672 46.0752 18.4693 45.6621C18.6803 45.2402 18.7857 44.7656 18.7857 44.2383C18.7857 43.6934 18.6803 43.188 18.4693 42.7222C18.2672 42.2476 17.9464 41.8652 17.5069 41.5752C17.0763 41.2852 16.505 41.1401 15.793 41.1401H12.5235V57H8.22566V37.8047H15.793C17.3223 37.8047 18.6319 38.0815 19.7218 38.6353C20.8204 39.189 21.6597 39.9492 22.2398 40.916C22.8287 41.874 23.1231 42.9727 23.1231 44.2119C23.1231 45.4512 22.8287 46.5278 22.2398 47.4419C21.6597 48.356 20.8204 49.0679 19.7218 49.5776C18.6319 50.0786 17.3223 50.3291 15.793 50.3291ZM32.8141 53.5591V42.7354H36.9538V57H33.0778L32.8141 53.5591ZM33.2492 50.6455L34.383 50.6191C34.383 51.5771 34.2687 52.4604 34.0402 53.269C33.8205 54.0776 33.4865 54.7808 33.0382 55.3784C32.5988 55.9761 32.0495 56.4419 31.3903 56.7759C30.7399 57.1011 29.9796 57.2637 29.1095 57.2637C28.4064 57.2637 27.7604 57.167 27.1715 56.9736C26.5915 56.7715 26.0905 56.4595 25.6686 56.0376C25.2467 55.6069 24.9215 55.0576 24.693 54.3896C24.4645 53.7129 24.3503 52.9043 24.3503 51.9639V42.7354H28.4635V51.9902C28.4635 52.3594 28.5075 52.6758 28.5954 52.9395C28.6921 53.1943 28.8195 53.4053 28.9777 53.5723C29.1447 53.7393 29.3468 53.8623 29.5841 53.9414C29.8302 54.0205 30.0983 54.0601 30.3883 54.0601C31.1178 54.0601 31.6891 53.9106 32.1022 53.6118C32.5241 53.3042 32.8185 52.8955 32.9855 52.3857C33.1613 51.8672 33.2492 51.2871 33.2492 50.6455ZM50.0857 53.7964V57H39.1433V53.7964H50.0857ZM49.9143 45.0293L40.9099 57H38.115V54.627L47.093 42.7354H49.9143V45.0293ZM48.5037 42.7354V45.939H38.3523V42.7354H48.5037ZM62.8485 53.7964V57H51.9061V53.7964H62.8485ZM62.6771 45.0293L53.6727 57H50.8778V54.627L59.8558 42.7354H62.6771V45.0293ZM61.2664 42.7354V45.939H51.1151V42.7354H61.2664ZM68.413 36.75V57H64.2865V36.75H68.413ZM77.0229 57.2637C75.8891 57.2637 74.874 57.0835 73.9775 56.7231C73.081 56.3628 72.3208 55.8662 71.6968 55.2334C71.0815 54.5918 70.6113 53.8535 70.2861 53.0186C69.9609 52.1836 69.7983 51.2915 69.7983 50.3423V49.8413C69.7983 48.7778 69.9477 47.7979 70.2466 46.9014C70.5454 46.0049 70.9804 45.2271 71.5517 44.5679C72.1318 43.8999 72.8437 43.3857 73.6875 43.0254C74.5312 42.6562 75.4936 42.4717 76.5747 42.4717C77.5854 42.4717 78.4863 42.6387 79.2773 42.9727C80.0683 43.2979 80.7363 43.7681 81.2812 44.3833C81.8261 44.9897 82.2392 45.7236 82.5205 46.585C82.8105 47.4375 82.9555 48.3955 82.9555 49.459V51.1465H71.4594V48.4966H78.9214V48.1802C78.9214 47.6792 78.8291 47.2397 78.6445 46.8618C78.4687 46.4839 78.2051 46.1938 77.8535 45.9917C77.5107 45.7808 77.0757 45.6753 76.5483 45.6753C76.0473 45.6753 75.6299 45.7808 75.2959 45.9917C74.9619 46.2026 74.6938 46.5015 74.4917 46.8882C74.2983 47.2661 74.1577 47.71 74.0698 48.2197C73.9819 48.7207 73.938 49.2612 73.938 49.8413V50.3423C73.938 50.896 74.0127 51.4014 74.1621 51.8584C74.3115 52.3154 74.5312 52.7065 74.8213 53.0317C75.1113 53.3569 75.4629 53.6118 75.876 53.7964C76.289 53.981 76.7593 54.0732 77.2866 54.0732C77.937 54.0732 78.5566 53.9502 79.1455 53.7041C79.7344 53.4492 80.2441 53.0537 80.6748 52.5176L82.5996 54.7192C82.3095 55.1411 81.9009 55.5498 81.3735 55.9453C80.855 56.332 80.2309 56.6484 79.5014 56.8945C78.7719 57.1406 77.9458 57.2637 77.0229 57.2637Z" fill="black"/>
</svg>
