<svg width="25" height="24" viewBox="0 0 25 24" fill="none" xmlns="http://www.w3.org/2000/svg">
<path d="M12.0476 0C5.42022 0 0.046936 5.32665 0.046936 11.8965C0.046936 14.1283 0.679311 16.209 1.75796 17.9938L0.154364 23.793L6.12929 22.2381C7.8767 23.223 9.89395 23.793 12.0476 23.793C18.6749 23.793 24.0482 18.4663 24.0482 11.8965C24.0482 5.32665 18.6749 0 12.0476 0ZM7.93993 6.34712C8.13494 6.34712 8.33531 6.34594 8.50832 6.35486C8.72233 6.35982 8.95527 6.37535 9.17828 6.8641C9.44329 7.44505 10.0203 8.90244 10.0943 9.05016C10.1683 9.19787 10.2208 9.37189 10.1178 9.56521C10.0198 9.76348 9.9688 9.88348 9.8248 10.059C9.67579 10.2295 9.51251 10.4413 9.37751 10.5701C9.2285 10.7178 9.07463 10.8798 9.24664 11.1743C9.41865 11.4687 10.016 12.4339 10.8991 13.2132C12.0341 14.2184 12.9918 14.5273 13.2898 14.675C13.5878 14.8228 13.7604 14.7997 13.9324 14.6015C14.1094 14.4081 14.6758 13.7448 14.8758 13.4494C15.0709 13.1539 15.2699 13.2051 15.5399 13.3022C15.814 13.3994 17.2752 14.113 17.5733 14.2607C17.8713 14.4084 18.0666 14.4815 18.1416 14.6015C18.2186 14.7254 18.2187 15.3153 17.9717 16.0033C17.7247 16.6903 16.5117 17.3547 15.9677 17.4013C15.4187 17.4519 14.9063 17.646 12.3991 16.6675C9.37499 15.4867 7.46781 12.4162 7.3188 12.2179C7.1698 12.0246 6.1078 10.6215 6.1078 9.17408C6.1078 7.72172 6.87595 7.01044 7.14497 6.71501C7.41898 6.41958 7.73992 6.34712 7.93993 6.34712Z" fill="black"/>
</svg>
