<svg width="27" height="29" viewBox="0 0 27 29" fill="none" xmlns="http://www.w3.org/2000/svg">
<path d="M26.2271 14.0009C26.2162 21.7041 20.4489 27.9369 13.3444 27.9224C11.0889 27.9178 8.97095 27.2836 7.12907 26.1743L0.0041019 28.6328L2.33657 21.1542C1.16833 19.0501 0.497286 16.5838 0.501042 13.9486C0.512024 6.24546 6.27986 0.0126745 13.3841 0.0271161C20.4893 0.0415595 26.2381 6.29775 26.2271 14.0009ZM13.381 2.24838C7.41736 2.23626 2.55897 7.48687 2.54976 13.9528C2.5461 16.5186 3.3081 18.8964 4.60002 20.832L3.24266 25.1843L7.40066 23.7494C9.10642 24.978 11.1509 25.6967 13.3478 25.7012C19.3105 25.7133 24.1698 20.4633 24.179 13.9974C24.1882 7.53148 19.3443 2.2605 13.381 2.24838ZM19.8552 17.2003C19.7759 17.0579 19.5661 16.9716 19.2513 16.8001C18.936 16.6286 17.3866 15.798 17.0985 15.6838C16.8096 15.5693 16.5989 15.5116 16.3885 15.8532C16.1781 16.1951 15.5726 16.9634 15.388 17.1912C15.2037 17.4195 15.0199 17.4478 14.7046 17.276C14.3898 17.1045 13.3746 16.741 12.1718 15.5742C11.2359 14.6662 10.6046 13.5464 10.4211 13.2033C10.2379 12.861 10.4026 12.6765 10.5604 12.5066C10.7027 12.3535 10.8765 12.1079 11.0343 11.9088C11.1927 11.7093 11.2453 11.5672 11.3501 11.339C11.4561 11.1111 11.4037 10.9115 11.3248 10.7399C11.2464 10.5689 10.6176 8.88527 10.356 8.20009C10.0944 7.51555 9.83191 7.62892 9.64762 7.62854C9.46392 7.62817 9.25347 7.59911 9.04327 7.59868C8.83307 7.59825 8.49116 7.68314 8.20157 8.02455C7.91228 8.36629 7.0968 9.1918 7.0944 10.8738C7.092 12.5562 8.21899 14.1838 8.37676 14.4119C8.53393 14.6401 10.5519 18.2086 13.7554 19.5841C16.9591 20.959 16.9598 20.5024 17.538 20.4463C18.1157 20.3906 19.4042 19.6233 19.6691 18.8259C19.9323 18.0273 19.9333 17.3429 19.8552 17.2003Z" fill="black"/>
</svg>
