<svg width="24" height="24" viewBox="0 0 24 24" fill="none" xmlns="http://www.w3.org/2000/svg">
<path fill-rule="evenodd" clip-rule="evenodd" d="M12 24C5.3726 24 0 18.6274 0 12C0 5.3726 5.3726 0 12 0C18.6274 0 24 5.3726 24 12C24 18.6274 18.6274 24 12 24ZM12.3955 18.6763C16.3298 18.6747 19.5295 15.4741 19.531 11.5407C19.5318 9.63415 18.7903 7.8414 17.4431 6.4927C16.0959 5.14395 14.3043 4.40083 12.3954 4.4C8.4624 4.4 5.2614 7.60085 5.2598 11.5351C5.2593 12.7928 5.58785 14.0203 6.2123 15.1024L5.2 18.8L8.98265 17.8078C10.0249 18.3762 11.1983 18.6758 12.3926 18.6763H12.3955Z" fill="#949494"/>
<path fill-rule="evenodd" clip-rule="evenodd" d="M9.15795 16.516L6.91325 17.1048L7.5124 14.9162L7.3714 14.6918C6.7777 13.7476 6.46415 12.6562 6.4646 11.5356C6.4659 8.26557 9.12645 5.60522 12.3979 5.60522C13.982 5.60577 15.4711 6.22347 16.5909 7.34452C17.7106 8.46557 18.3269 9.95562 18.3263 11.5404C18.3249 14.8106 15.6644 17.4712 12.3955 17.4712H12.3932C11.3289 17.4708 10.2851 17.1849 9.3745 16.6445L9.15795 16.516ZM15.9904 13.2376C15.9459 13.1632 15.827 13.1186 15.6487 13.0293C15.4704 12.9401 14.5939 12.5088 14.4304 12.4493C14.267 12.3898 14.1481 12.3601 14.0293 12.5385C13.9104 12.717 13.5687 13.1186 13.4647 13.2376C13.3607 13.3566 13.2566 13.3715 13.0785 13.2822C12.9002 13.193 12.3257 13.0047 11.6447 12.3973C11.1146 11.9245 10.7568 11.3407 10.6528 11.1622C10.5487 10.9837 10.6417 10.8872 10.731 10.7983C10.8112 10.7184 10.9092 10.59 10.9984 10.4859C11.0875 10.3818 11.1172 10.3074 11.1767 10.1885C11.2361 10.0695 11.2064 9.96537 11.1618 9.87612C11.1173 9.78687 10.7606 8.90927 10.6121 8.55227C10.4673 8.20462 10.3204 8.25172 10.2109 8.24622C10.107 8.24102 9.9881 8.23992 9.86925 8.23992C9.7504 8.23992 9.5572 8.28453 9.3938 8.46303C9.23035 8.64153 8.76975 9.07288 8.76975 9.95043C8.76975 10.828 9.40865 11.6758 9.4978 11.7948C9.58695 11.9138 10.755 13.7147 12.5435 14.487C12.9689 14.6707 13.301 14.7804 13.56 14.8625C13.9871 14.9983 14.3758 14.9791 14.683 14.9332C15.0255 14.882 15.7378 14.5019 15.8864 14.0855C16.035 13.6689 16.035 13.3119 15.9904 13.2376Z" fill="#949494"/>
</svg>
