<svg width="25" height="24" viewBox="0 0 25 24" fill="none" xmlns="http://www.w3.org/2000/svg">
<path d="M7.04277 0C3.18358 0 0.0443726 3.11485 0.0443726 6.94155V16.8553C0.0443726 20.681 3.18648 23.793 7.04668 23.793H17.0472C20.9064 23.793 24.0456 20.6781 24.0456 16.8514V6.93768C24.0456 3.11197 20.9035 0 17.0433 0H7.04277ZM19.0453 3.96549C19.5974 3.96549 20.0454 4.40963 20.0454 4.95687C20.0454 5.50411 19.5974 5.94824 19.0453 5.94824C18.4933 5.94824 18.0453 5.50411 18.0453 4.95687C18.0453 4.40963 18.4933 3.96549 19.0453 3.96549ZM12.045 5.94824C15.3541 5.94824 18.0453 8.61603 18.0453 11.8965C18.0453 15.1769 15.3541 17.8447 12.045 17.8447C8.73581 17.8447 6.04467 15.1769 6.04467 11.8965C6.04467 8.61603 8.73581 5.94824 12.045 5.94824ZM12.045 7.93099C10.9841 7.93099 9.96659 8.34878 9.21641 9.09246C8.46622 9.83613 8.04477 10.8448 8.04477 11.8965C8.04477 12.9482 8.46622 13.9568 9.21641 14.7005C9.96659 15.4442 10.9841 15.862 12.045 15.862C13.1059 15.862 14.1234 15.4442 14.8735 14.7005C15.6237 13.9568 16.0452 12.9482 16.0452 11.8965C16.0452 10.8448 15.6237 9.83613 14.8735 9.09246C14.1234 8.34878 13.1059 7.93099 12.045 7.93099Z" fill="black"/>
</svg>
