<svg width="16" height="17" viewBox="0 0 16 17" fill="none" xmlns="http://www.w3.org/2000/svg">
<path d="M15.928 13.5483L15.8484 13.2933C15.6598 12.6977 15.0415 12.0764 14.4736 11.9128L12.3715 11.3026C11.8015 11.1379 10.9883 11.3594 10.5712 11.8025L9.81047 12.6108C7.04566 11.8171 4.87761 9.51344 4.13152 6.57639L4.89233 5.76803C5.3094 5.32489 5.5179 4.46206 5.36282 3.85639L4.78962 1.62185C4.63454 1.01728 4.04877 0.360413 3.48922 0.162216L3.24926 0.0764958C2.68864 -0.121702 1.8891 0.0787403 1.47207 0.521843L0.334058 1.73208C0.130753 1.94695 0.000816572 2.56153 0.000816572 2.56378C-0.0389859 6.40267 1.37774 10.1013 3.93348 12.8168C6.48295 15.5256 9.95094 17.0287 13.5535 16.9964C13.5724 16.9964 14.1676 16.8605 14.3709 16.6456L15.5089 15.4365C15.9259 14.9934 16.1145 14.1439 15.928 13.5483Z" fill="black"/>
</svg>
