<svg width="81" height="85" viewBox="0 0 81 85" fill="none" xmlns="http://www.w3.org/2000/svg">
<path d="M15.1075 8.11901L36.5243 14.7456L36.1635 13.0531C35.8069 11.3945 35.8315 9.74086 36.2335 8.14104C37.6294 2.58602 43.1629 -0.572605 48.5686 1.09998C53.9742 2.77256 57.2364 8.6527 55.8406 14.2077C55.4386 15.8075 54.6885 17.2367 53.6099 18.4513L52.5119 19.6924L71.968 25.7124L66.4372 47.7229L68.0534 47.413C69.6343 47.1096 71.2284 47.1989 72.7871 47.6812C78.1928 49.3538 81.455 55.2339 80.0592 60.7889C78.6633 66.344 73.1298 69.5026 67.7241 67.83C66.1653 67.3477 64.7596 66.5088 63.5483 65.3415L62.3098 64.1482L57.2853 84.1439L40.9232 79.0813C41.6972 77.9267 42.2639 76.6471 42.6122 75.2608C44.2876 68.5936 40.3738 61.539 33.8858 59.5315C27.3978 57.5241 20.7591 61.3136 19.0837 67.9808C18.7354 69.367 18.6236 70.7874 18.7476 72.2199L0.424748 66.5506L15.1075 8.11901Z" fill="#FAE05E"/>
</svg>
