<svg width="92" height="95" viewBox="0 0 92 95" fill="none" xmlns="http://www.w3.org/2000/svg">
<path d="M16.8174 9.18883L41.3491 16.666L40.9358 14.7562C40.5273 12.8847 40.5555 11.0188 41.0159 9.21369C42.6148 2.9457 48.9531 -0.618326 55.145 1.26893C61.3369 3.15618 65.0736 9.79102 63.4747 16.059C63.0142 17.8642 62.155 19.4767 60.9196 20.8472L59.6619 22.2476L81.9477 29.0403L75.6124 53.8758L77.4638 53.5261C79.2745 53.1837 81.1005 53.2845 82.8859 53.8287C89.0778 55.716 92.8145 62.3508 91.2156 68.6188C89.6167 74.8868 83.2784 78.4508 77.0865 76.5636C75.3011 76.0194 73.6908 75.0728 72.3035 73.7556L70.8848 72.4093L65.1295 94.9713L46.3876 89.2589C47.2743 87.9561 47.9234 86.5123 48.3224 84.9481C50.2414 77.4251 45.7583 69.4651 38.3268 67.2C30.8952 64.9349 23.2909 69.2108 21.3719 76.7337C20.9729 78.2979 20.8448 79.9005 20.9868 81.5169L-0.000864391 75.1199L16.8174 9.18883Z" fill="#FAE05E"/>
</svg>
