<svg width="20" height="18" viewBox="0 0 20 18" fill="none" xmlns="http://www.w3.org/2000/svg">
<path d="M19.227 14.3635L19.1358 14.1041C18.9197 13.4979 18.2116 12.8658 17.5611 12.6992L15.1535 12.0783C14.5006 11.9107 13.5692 12.1361 13.0915 12.587L12.2201 13.4096C9.05339 12.6018 6.57017 10.2577 5.71562 7.26892L6.58703 6.44633C7.06473 5.99539 7.30354 5.11737 7.12591 4.50104L6.46939 2.22718C6.29176 1.61197 5.62083 0.943539 4.97994 0.741853L4.7051 0.654624C4.06298 0.452939 3.14722 0.656908 2.66955 1.10781L1.36611 2.33935C1.13325 2.558 0.984425 3.1834 0.984425 3.18568C0.938837 7.09214 2.56152 10.8558 5.48879 13.6191C8.40888 16.3756 12.381 17.9051 16.5073 17.8723C16.5289 17.8723 17.2106 17.7341 17.4435 17.5154L18.7469 16.2849C19.2246 15.8341 19.4406 14.9697 19.227 14.3635Z" fill="white"/>
</svg>
