<svg width="52" height="29" viewBox="0 0 52 29" fill="none" xmlns="http://www.w3.org/2000/svg">
<path d="M42.421 0.145891C42.2611 0.231831 39.5631 3.05704 36.4253 6.43011L30.7294 12.5639H29.8101H28.8808V14.9809V17.3979H28.1313H27.3819V10.684C27.3819 4.10978 27.3819 3.97013 27.182 3.75529C27.0221 3.58341 26.8522 3.54045 26.3826 3.54045H25.783V3.17521C25.783 2.65958 25.7031 2.47696 25.3733 2.29434C24.8237 1.99356 24.3041 2.34805 24.2141 3.10001L24.1542 3.54045H20.9365H17.7088L17.0193 4.33537C16.6496 4.76506 15.0807 6.64495 13.5418 8.5141L10.7439 11.9194H8.34559C5.76745 11.9194 5.33776 11.9839 4.34848 12.5102C3.70894 12.8432 2.81958 13.7456 2.42986 14.4653C2.27997 14.7446 2.03015 15.3677 1.89025 15.8403L1.63044 16.6997L1.1308 16.7642C0.511244 16.8501 0.221453 17.0112 0.10154 17.355C0.0415831 17.5054 0.00161194 18.73 0.00161194 20.0835C0.00161194 23.2202 -0.118301 23.0161 1.71038 23.0913L3.03942 23.145L3.16933 23.8326C3.45912 25.4009 4.49837 26.8404 5.87737 27.5923C6.88664 28.1509 8.45551 28.2691 9.59469 27.8824C11.2835 27.313 12.7024 25.5835 13.0122 23.7359L13.1122 23.0913L24.9136 23.1128L36.7151 23.145L36.835 23.7359C36.9949 24.563 37.1548 24.9927 37.5245 25.6158C37.9143 26.2818 38.8536 27.2164 39.4631 27.5386C40.9421 28.3443 42.8707 28.2906 44.2597 27.4205C45.4288 26.6792 46.3182 25.3902 46.648 23.94L46.8278 23.145L48.8564 23.0913C50.715 23.0376 50.8949 23.0161 51.0248 22.8335C51.3745 22.3179 51.2846 22.1997 47.997 18.4937L47.0177 17.3979H46.0584H45.0891L45.0491 16.689C44.9991 15.8725 44.7793 15.5718 44.2297 15.5718C43.7101 15.5718 43.4702 15.937 43.4702 16.7319V17.3979H38.1741H32.8779V15.9692V14.5512L38.4838 8.53559C41.5616 5.22698 44.1498 2.39102 44.2297 2.22989C44.3096 2.06876 44.3696 1.73575 44.3696 1.47793C44.3696 0.371481 43.3703 -0.316025 42.421 0.145891ZM24.2841 8.80415V11.3823H20.0671H15.8502L16.11 11.0815C16.2399 10.9204 17.1792 9.76021 18.1785 8.50336L19.9972 6.22601H22.1356H24.2841V8.80415ZM9.09505 20.2661C9.89447 20.6206 10.594 21.7378 10.594 22.6724C10.594 23.3706 10.3342 24.0904 9.90447 24.5738C8.29563 26.357 5.59757 25.1861 5.59757 22.7046C5.59757 20.771 7.39628 19.5142 9.09505 20.2661ZM42.8207 20.2984C43.6801 20.6958 44.1797 21.5122 44.2497 22.5972C44.2797 23.2847 44.2597 23.4243 43.9999 23.9507C43.4603 25.0464 42.2411 25.6587 41.1919 25.3687C39.5031 24.896 38.7237 22.7798 39.673 21.2544C40.3725 20.1265 41.6516 19.7398 42.8207 20.2984Z" fill="white"/>
</svg>
