<svg width="30" height="38" viewBox="0 0 30 38" fill="none" xmlns="http://www.w3.org/2000/svg">
<path d="M15.4218 0C12.4657 0 10.0546 2.54837 10.0546 5.67996C10.0546 7.1158 10.5262 8.10789 11.3436 9.35672C11.9208 10.241 11.9911 10.8274 11.8827 11.0556C11.7772 11.2743 11.3729 11.398 10.8514 11.3599C8.99693 11.2236 3.2547 10.5009 3.23419 10.4978C3.10529 10.4756 2.97345 10.4724 2.85919 10.4724C2.20294 10.4724 1.06328 10.8147 0.820114 13.1095C0.755661 13.4455 0.46269 15.2617 0.0232335 21.5534C-0.0236419 21.8102 0.0115146 22.0415 0.0466711 22.2381C0.207805 23.1287 0.75273 23.658 1.49981 23.658C2.27325 23.658 3.15216 23.0938 4.33576 22.1873C5.32307 21.433 6.14339 21.097 6.98422 21.097C9.11411 21.097 10.8514 22.9163 10.8514 25.1541C10.8514 27.3919 9.11411 29.2112 6.98422 29.2112C5.99105 29.2112 5.30843 28.9133 4.28889 28.0448C3.10529 27.0369 2.21172 26.5741 1.49981 26.5741C0.869919 26.5741 0.383588 26.9481 0.140422 27.5884C-0.000204206 27.9624 -0.0265714 28.5171 0.0232335 28.8309C0.412884 33.2461 0.606245 34.0576 0.773239 34.7644L0.843552 35.0687C1.13359 36.4379 2.03008 37.3254 3.117 37.3254H27.1406C28.8809 37.3254 30 36.1305 30 34.2826V13.287C30 11.8956 29.3144 10.9669 27.9375 10.5231C27.8437 10.4914 27.7324 10.4883 27.6328 10.4978C27.5771 10.5041 21.9462 11.1095 19.9452 11.3599C19.8691 11.3694 19.7841 11.3853 19.7109 11.3853C19.5204 11.3853 19.1806 11.3536 19.0546 11.1063C18.9169 10.8401 18.955 10.2284 19.4765 9.33136L19.5702 9.17922C20.37 7.8036 20.7656 7.10946 20.7656 5.67996C20.7656 2.54837 18.3778 0 15.4218 0Z" fill="white"/>
</svg>
