<svg width="32" height="35" viewBox="0 0 32 35" fill="none" xmlns="http://www.w3.org/2000/svg">
<path d="M23.5869 0.00473909C21.0079 0.0820456 17.833 0.519227 16.0352 2.43589L15.5945 2.88374C12.675 6.01332 12.6975 10.9369 15.6346 14.0799L18.8395 17.492C20.2642 19.0141 22.1346 19.8592 24.1077 19.8592C26.0582 19.8592 27.9086 19.0141 29.3158 17.5133L29.7364 17.0655C31.9724 14.6876 31.9924 9.77735 31.9999 7.68207C32.0024 7.3142 31.9248 7.0263 31.7395 6.82904C31.5893 6.66909 31.374 6.59445 31.1586 6.59445C30.8156 6.59445 30.5502 6.80771 30.4175 6.93567L26.251 11.3928C26.1634 11.4088 25.9606 11.4354 25.57 11.4354C24.1678 11.4354 22.2098 11.1449 21.724 10.9236C21.401 10.1719 21.1506 6.87969 21.3634 6.18926C22.0144 5.49617 25.565 1.69482 25.59 1.66816C25.7027 1.53221 26.0707 1.06037 25.8504 0.537887C25.7653 0.337957 25.5349 0.0074048 24.929 0.00473909H24.6485C24.3105 0.00473909 23.955 -0.00592387 23.5869 0.00473909ZM13.6515 13.632L1.43252 25.4679C0.138008 26.8487 -1.00877 30.0103 1.43252 32.6121C2.55676 33.809 3.73359 34.1262 4.67755 34.1262C4.92043 34.1262 5.13326 34.0969 5.33858 34.0622C6.56047 33.8676 7.57955 33.1932 8.14293 32.5908L19.2401 19.5819L18.2186 18.7502L14.4327 14.7196L13.6515 13.632Z" fill="white"/>
</svg>
