<svg width="117" height="115" viewBox="0 0 117 115" fill="none" xmlns="http://www.w3.org/2000/svg">
<path d="M116.696 67.7546L91.2029 85.3257L93.2915 86.4281C95.3408 87.5052 97.0549 88.9949 98.3859 90.85C103.007 97.2914 101.532 106.14 95.0979 110.575C88.6635 115.01 79.6688 113.378 75.0473 106.936C73.7164 105.081 72.8658 102.996 72.5248 100.742L72.1727 98.4424L49.0139 114.405L30.7024 88.8824L29.6286 90.9249C28.5788 92.923 27.1051 94.5882 25.2497 95.8671C18.8153 100.302 9.82062 98.6698 5.19918 92.2284C0.577727 85.787 2.0527 76.9384 8.48714 72.5034C10.3425 71.2245 12.4397 70.4285 14.7133 70.1359L17.0376 69.8363L0.402353 46.6502L19.8784 33.2262C20.4201 35.0945 21.2724 36.8465 22.4257 38.4539C27.9724 46.1849 38.7637 48.1433 46.4864 42.8203C54.2091 37.4974 55.9787 26.8814 50.4319 19.1504C49.2787 17.5429 47.8848 16.1642 46.2742 15.0326L68.0841 -3.33676e-05L116.696 67.7546Z" fill="#FAE05E"/>
</svg>
